<svg width="31" height="31" viewBox="0 0 31 31" fill="none" xmlns="http://www.w3.org/2000/svg">
<rect width="31" height="31" rx="6" fill="#546881"/>
<path d="M21.002 16C21.5543 16 22.002 16.4477 22.002 17C22.002 17.5128 21.616 17.9355 21.1186 17.9933L21.002 18H9.417L12.7091 21.2929C13.0696 21.6534 13.0973 22.2206 12.7923 22.6129L12.7091 22.7071C12.3486 23.0676 11.7814 23.0953 11.3891 22.7903L11.2949 22.7071L6.2949 17.7071C5.69232 17.1045 6.07434 16.0928 6.88837 16.006L7.002 16H21.002ZM20.6129 7.2097L20.7071 7.29289L25.7071 12.2929C26.3097 12.8955 25.9277 13.9072 25.1136 13.994L25 14H11C10.4477 14 10 13.5523 10 13C10 12.4872 10.386 12.0645 10.8834 12.0067L11 12H22.585L19.2929 8.70711C18.9324 8.34662 18.9047 7.77939 19.2097 7.3871L19.2929 7.29289C19.6534 6.93241 20.2206 6.90468 20.6129 7.2097Z" fill="white"/>
</svg>
