<svg width="31" height="31" viewBox="0 0 31 31" fill="none" xmlns="http://www.w3.org/2000/svg">
<rect width="31" height="31" rx="6" fill="#546881"/>
<path d="M23 12.5V17.5C23 18.8807 21.8807 20 20.5 20H9.5C8.11929 20 7 18.8807 7 17.5V12.5C7 11.1193 8.11929 10 9.5 10H20.5C21.8807 10 23 11.1193 23 12.5ZM22 12.5C22 11.6716 21.3284 11 20.5 11H9.5C8.67157 11 8 11.6716 8 12.5V17.5C8 18.3284 8.67157 19 9.5 19H20.5C21.3284 19 22 18.3284 22 17.5V12.5ZM9 13.5C9 12.6716 9.67157 12 10.5 12H12.7338C13.0057 12 13.2724 12.0739 13.5056 12.2138C14.2159 12.64 14.4463 13.5614 14.02 14.2717L12.22 17.2717C11.949 17.7236 11.4607 18 10.9338 18H10.5C9.67157 18 9 17.3284 9 16.5V13.5ZM10 13.5V16.5C10 16.7761 10.2239 17 10.5 17H10.9338C11.1094 17 11.2722 16.9079 11.3626 16.7572L13.1626 13.7572C13.3046 13.5205 13.2278 13.2133 12.9911 13.0713C12.9133 13.0246 12.8244 13 12.7338 13H10.5C10.2239 13 10 13.2239 10 13.5ZM22.5 13C22.2239 13 22 12.7761 22 12.5C22 12.2239 22.2239 12 22.5 12H23.5C24.3284 12 25 12.6716 25 13.5V16.5C25 17.3284 24.3284 18 23.5 18H22.5C22.2239 18 22 17.7761 22 17.5C22 17.2239 22.2239 17 22.5 17H23.5C23.7761 17 24 16.7761 24 16.5V13.5C24 13.2239 23.7761 13 23.5 13H22.5Z" fill="white"/>
</svg>
