<svg width="31" height="31" viewBox="0 0 31 31" fill="none" xmlns="http://www.w3.org/2000/svg">
<rect width="31" height="31" rx="6" fill="#546881"/>
<path d="M14.0298 21.5989C14.1523 21.6952 14.2748 21.7827 14.406 21.8789C15.4035 22.6052 16.4098 23.1827 17.416 23.6114C18.4223 24.0402 19.376 24.2502 20.2685 24.2502C20.881 24.2502 21.4498 24.1364 21.9748 23.9177C22.5085 23.6989 22.981 23.3577 23.4098 22.8852C23.6635 22.6052 23.856 22.3077 24.0048 21.9927C24.1535 21.6777 24.2235 21.3539 24.2235 21.0389C24.2235 20.7939 24.171 20.5752 24.0835 20.3564C23.9873 20.1377 23.8298 19.9539 23.6023 19.7964L20.706 17.7402C20.4873 17.5914 20.286 17.4777 20.0935 17.3989C19.901 17.3202 19.726 17.2852 19.5598 17.2852C19.341 17.2852 19.1398 17.3464 18.9385 17.4689C18.7373 17.5739 18.5273 17.7402 18.3085 17.9589L17.6435 18.6152C17.5473 18.7114 17.4335 18.7639 17.2848 18.7639C17.206 18.7639 17.136 18.7552 17.066 18.7289C17.0048 18.7027 16.9523 18.6764 16.9085 18.6589C16.7423 18.5714 16.5498 18.4489 16.3398 18.2914" stroke="white" stroke-width="1.5" stroke-miterlimit="10" stroke-linecap="round" stroke-linejoin="round"/>
<path d="M14.3888 16.5675C13.9338 16.1038 13.5138 15.64 13.12 15.185C12.735 14.73 12.4638 14.3537 12.3063 14.065C12.2888 14.0125 12.2625 13.96 12.2363 13.89C12.2188 13.82 12.21 13.7588 12.21 13.6888C12.21 13.5488 12.2538 13.435 12.35 13.3387L13.015 12.6475C13.225 12.4375 13.3913 12.2275 13.505 12.0262C13.6275 11.825 13.6888 11.615 13.6888 11.405C13.6888 11.2388 13.645 11.055 13.5663 10.8713C13.4875 10.6788 13.3738 10.4775 13.2163 10.2588L11.1863 7.3975C11.0288 7.17 10.8275 7.0125 10.6 6.9075C10.3813 6.8025 10.1363 6.75 9.89125 6.75C9.24375 6.75 8.63125 7.02125 8.07125 7.5725C7.6075 8.01 7.275 8.5 7.065 9.03375C6.855 9.55875 6.75 10.1275 6.75 10.7225C6.75 11.6325 6.96 12.5863 7.38 13.5838C7.8 14.5725 8.3775 15.57 9.095 16.5675C9.82125 17.565 10.635 18.5187 11.5363 19.4287" stroke="white" stroke-width="1.5" stroke-miterlimit="10" stroke-linecap="round" stroke-linejoin="round"/>
</svg>
