<svg width="31" height="31" viewBox="0 0 31 31" fill="none" xmlns="http://www.w3.org/2000/svg">
<rect width="31" height="31" rx="6" fill="#4C6FFF"/>
<g clip-path="url(#clip0_2236_55117)">
<path d="M25.8902 19.4945C22.779 15.8215 20.4408 10.6962 19.5493 5.36994C19.5235 5.21635 19.3015 4.82974 18.8423 5.08495L11.0708 10.852C10.936 10.9519 10.8688 11.1191 10.8963 11.2845C11.0203 12.0248 11.3279 13.4633 11.3214 13.4534L5.16065 18.4402C4.89768 18.6676 5.02059 18.9783 5.09563 19.0704C7.81486 22.4014 12.2871 24.8588 17.688 25.9904C17.7186 25.9969 17.7495 26 17.7797 26C17.8781 26 17.973 25.9673 18.0503 25.9086L25.8173 20.1448C25.9629 20.0603 26.1052 19.7484 25.8902 19.4945ZM6.07756 18.8478L11.5739 14.3987C11.5989 14.492 11.6238 14.5852 11.6496 14.6781C11.6513 14.6755 11.6532 14.6731 11.655 14.6706C12.7123 18.4553 14.4385 21.9888 16.6101 24.8209C12.2107 23.6844 8.44326 21.5531 6.07756 18.8478ZM17.8506 24.9437C15.3577 21.9315 13.4068 17.9684 12.3251 13.7151C12.3248 13.7153 12.3245 13.7155 12.3241 13.7156C12.1289 12.9527 11.9611 12.1816 11.8241 11.4059L18.7956 6.23225C19.7675 11.3478 21.9163 16.0923 24.903 19.7105L17.8506 24.9437Z" fill="white"/>
</g>
<defs>
<clipPath id="clip0_2236_55117">
<rect width="21" height="21" fill="white" transform="translate(5 5)"/>
</clipPath>
</defs>
</svg>
