<svg width="24" height="24" viewBox="0 0 24 24" fill="none" xmlns="http://www.w3.org/2000/svg">
<path d="M15 22H9C4 22 2 20 2 15V9C2 4 4 2 9 2H15C20 2 22 4 22 9V15C22 20 20 22 15 22Z" stroke="#2B943C" stroke-width="1.5" stroke-linecap="round" stroke-linejoin="round"/>
<g clip-path="url(#clip0_2236_62092)">
<path d="M15.5203 6.29182H14.6215V5.4494C14.6215 5.20133 14.4201 5 14.1721 5H9.82797C9.57988 5 9.37855 5.20133 9.37855 5.4494V6.29187H8.47976C7.90034 6.29187 7.43115 6.76132 7.43115 7.34047V17.9514C7.43115 18.5305 7.90029 19 8.47976 19H15.5202C16.0996 19 16.5688 18.5305 16.5688 17.9514V7.34042C16.5689 6.76162 16.0997 6.29182 15.5203 6.29182ZM13.1984 7.34042V6.29182V5.89881H13.7227V6.29189V7.34049V8.33275H13.1984V7.34042ZM10.2774 7.34042V6.29182V5.89881H11.9252V6.29189V7.34049V8.33275H10.2774V7.34042V7.34042ZM10.5521 17.7699C10.5521 18.0182 10.3508 18.2193 10.1027 18.2193H9.37859C9.13051 18.2193 8.92918 18.0182 8.92918 17.7699V16.9963C8.92918 16.748 9.13051 16.5469 9.37859 16.5469H10.1027C10.3508 16.5469 10.5521 16.7479 10.5521 16.9963V17.7699V17.7699ZM10.5521 15.5103C10.5521 15.7587 10.3508 15.9597 10.1027 15.9597H9.37859C9.13051 15.9597 8.92918 15.7587 8.92918 15.5103V14.7368C8.92918 14.4884 9.13051 14.2874 9.37859 14.2874H10.1027C10.3508 14.2874 10.5521 14.4884 10.5521 14.7368V15.5103V15.5103ZM10.5521 13.2511C10.5521 13.4994 10.3508 13.7005 10.1027 13.7005H9.37859C9.13051 13.7005 8.92918 13.4994 8.92918 13.2511V12.4773C8.92918 12.2289 9.13051 12.0278 9.37859 12.0278H10.1027C10.3508 12.0278 10.5521 12.2289 10.5521 12.4773V13.2511V13.2511ZM12.8116 17.7699C12.8116 18.0182 12.6103 18.2193 12.3622 18.2193H11.6378C11.3897 18.2193 11.1884 18.0182 11.1884 17.7699V16.9963C11.1884 16.748 11.3897 16.5469 11.6378 16.5469H12.3622C12.6103 16.5469 12.8116 16.7479 12.8116 16.9963V17.7699ZM12.8116 15.5103C12.8116 15.7587 12.6103 15.9597 12.3622 15.9597H11.6378C11.3897 15.9597 11.1884 15.7587 11.1884 15.5103V14.7368C11.1884 14.4884 11.3897 14.2874 11.6378 14.2874H12.3622C12.6103 14.2874 12.8116 14.4884 12.8116 14.7368V15.5103ZM12.8116 13.2511C12.8116 13.4994 12.6103 13.7005 12.3622 13.7005H11.6378C11.3897 13.7005 11.1884 13.4994 11.1884 13.2511V12.4773C11.1884 12.2289 11.3897 12.0278 11.6378 12.0278H12.3622C12.6103 12.0278 12.8116 12.2289 12.8116 12.4773V13.2511ZM15.0709 17.7699C15.0709 18.0182 14.8696 18.2193 14.6215 18.2193H13.8974C13.6493 18.2193 13.448 18.0182 13.448 17.7699V16.9963C13.448 16.748 13.6493 16.5469 13.8974 16.5469H14.6215C14.8696 16.5469 15.0709 16.7479 15.0709 16.9963V17.7699ZM15.0709 15.5103C15.0709 15.7587 14.8696 15.9597 14.6215 15.9597H13.8974C13.6493 15.9597 13.448 15.7587 13.448 15.5103V14.7368C13.448 14.4884 13.6493 14.2874 13.8974 14.2874H14.6215C14.8696 14.2874 15.0709 14.4884 15.0709 14.7368V15.5103ZM15.0709 13.2511C15.0709 13.4994 14.8696 13.7005 14.6215 13.7005H13.8974C13.6493 13.7005 13.448 13.4994 13.448 13.2511V12.4773C13.448 12.2289 13.6493 12.0278 13.8974 12.0278H14.6215C14.8696 12.0278 15.0709 12.2289 15.0709 12.4773V13.2511ZM15.0709 10.627C15.0709 11.0509 14.727 11.3945 14.3031 11.3945H9.69682C9.27291 11.3945 8.92924 11.0509 8.92924 10.627V9.83396C8.92924 9.4097 9.27291 9.06611 9.69682 9.06611H14.303C14.727 9.06611 15.0709 9.40977 15.0709 9.83396V10.627H15.0709Z" fill="#2B943C"/>
</g>
<defs>
<clipPath id="clip0_2236_62092">
<rect width="14" height="14" fill="white" transform="translate(5 5)"/>
</clipPath>
</defs>
</svg>
