<svg width="17" height="20" viewBox="0 0 17 20" fill="none" xmlns="http://www.w3.org/2000/svg">
<path d="M2.07157 19.5C1.15811 19.5 0.416992 18.9894 0.416992 18.36V4.97767C0.416992 4.34829 1.15811 3.83767 2.07157 3.83767H4.03064C4.09268 3.83767 4.15358 3.84796 4.20529 3.86617L4.20299 3.86538V0.633792V0.633C4.20299 0.559375 4.28916 0.5 4.39602 0.5H11.3119C11.4188 0.5 11.5061 0.559375 11.5061 0.633V0.633792V3.84638C11.5337 3.84163 11.5659 3.83846 11.598 3.83846H13.3388C14.2523 3.83846 14.9934 4.34908 14.9934 4.97846V8.16967C15.0416 8.15304 15.0991 8.14354 15.16 8.14354H16.0298C16.2435 8.14354 16.417 8.26308 16.417 8.41033V15.3548C16.417 15.5021 16.2435 15.6216 16.0298 15.6216H15.1611C15.1002 15.6216 15.0428 15.6121 14.9911 15.5947L14.9934 15.5955V18.36C14.9934 18.9894 14.2523 19.5 13.3388 19.5H2.07157ZM10.4869 16.9421V17.8399C10.4869 17.9135 10.5743 17.9737 10.6811 17.9737H12.2139C12.3208 17.9737 12.4081 17.9135 12.4081 17.8399V16.9421C12.4081 16.8685 12.3208 16.8091 12.2139 16.8091H10.6788C10.572 16.8091 10.4858 16.8685 10.4846 16.9421H10.4869ZM6.86065 16.9421V17.8399C6.86065 17.9135 6.94798 17.9737 7.05484 17.9737H8.58647C8.69333 17.9737 8.78065 17.9135 8.78065 17.8399V16.9421C8.78065 16.8685 8.69333 16.8091 8.58647 16.8091H7.05369C6.94683 16.8091 6.8618 16.8685 6.86065 16.9421ZM3.23437 16.9421V17.8399C3.23437 17.9135 3.32055 17.9737 3.4274 17.9737H4.96019C5.06705 17.9737 5.15437 17.9135 5.15437 17.8399V16.9421C5.15437 16.8685 5.06705 16.8091 4.96019 16.8091H3.4274C3.32055 16.8091 3.23437 16.8685 3.23437 16.9421ZM10.4858 14.9068V15.8045C10.4858 15.8781 10.5731 15.9383 10.68 15.9383H12.2128C12.3196 15.9383 12.4069 15.8781 12.4069 15.8045V14.9068C12.4069 14.8331 12.3208 14.773 12.2139 14.773H12.2128H10.6788C10.572 14.773 10.4846 14.8323 10.4846 14.906L10.4858 14.9068ZM6.85951 14.9068V15.8045C6.85951 15.8781 6.94683 15.9383 7.05369 15.9383H8.58647C8.69333 15.9383 8.78065 15.8781 8.78065 15.8045V14.9068C8.78065 14.8331 8.69448 14.773 8.58762 14.773H7.05369C6.94683 14.773 6.85951 14.8331 6.85951 14.9068ZM3.23322 14.9068V15.8045C3.23322 15.8781 3.3194 15.9383 3.42626 15.9383H4.95904C5.0659 15.9383 5.15322 15.8781 5.15322 15.8045V14.9068C5.15322 14.8331 5.06705 14.773 4.96019 14.773H3.42626C3.3194 14.773 3.23322 14.8331 3.23322 14.9068ZM10.4846 12.8706V13.7683C10.4846 13.842 10.5708 13.9021 10.6777 13.9021H12.2116C12.3185 13.9021 12.4058 13.8428 12.4058 13.7691V12.8706C12.4058 12.797 12.3185 12.7376 12.2116 12.7376H10.6788C10.572 12.7376 10.4858 12.797 10.4846 12.8706ZM6.85836 12.8706V13.7683C6.85836 13.842 6.94453 13.9021 7.05139 13.9021H8.58532C8.69218 13.9021 8.77951 13.8428 8.77951 13.7691V12.8706C8.77951 12.797 8.69218 12.7376 8.58532 12.7376H7.05254C6.94568 12.7376 6.85951 12.797 6.85836 12.8706ZM3.23207 12.8706V13.7683C3.23207 13.842 3.31825 13.9021 3.42511 13.9021H4.95904C5.0659 13.9021 5.15322 13.8428 5.15322 13.7691V12.8706C5.15322 12.797 5.0659 12.7376 4.95904 12.7376H3.42626C3.3194 12.7376 3.23207 12.797 3.23207 12.8706ZM2.99078 7.55613V11.444C2.99078 11.5176 3.07696 11.5778 3.18381 11.5778H12.1013H12.1025C12.2093 11.5778 12.2955 11.5184 12.2955 11.4448V7.55613C12.2955 7.4825 12.2082 7.42233 12.1013 7.42233H3.18496C3.07811 7.42233 2.99078 7.4825 2.99078 7.55613ZM2.41168 5.43288V6.37417C2.41168 6.59504 2.67135 6.77475 2.99193 6.77475H2.99308H12.6425C12.9631 6.77475 13.2227 6.59583 13.2227 6.37496V5.43288C13.2227 5.212 12.9631 5.03308 12.6425 5.03308H11.505V5.83267H12.0657V5.97358H3.57218V5.83267H3.93986C4.03638 5.83267 4.12945 5.81604 4.20873 5.78754L4.20529 5.78833V5.07742C4.1283 5.04971 4.03753 5.03308 3.93986 5.03308H2.98963C2.67021 5.03308 2.41168 5.212 2.41168 5.43288Z" fill="#909DAD"/>
</svg>
